#!OML:ASF Y:\EmotionMaleHayes\Project 1\Capture day 1\Session 1\Male1.ASF
:FULLY-SPECIFIED
:DEGREES
255
root 47.8734 16.828 -1.30972 350.708 87.9684 359.864
lowerback 13.2095 0.283128 -2.61509
upperback 3.2003 0.183875 0.712058
thorax -4.04374 0.167547 2.1889
lowerneck -27.5181 2.7037 1.93729
upperneck 16.283 3.29181 -1.54582
head 9.6872 1.45793 -0.336306
rclavicle 2.04997e-015 3.97569e-015
rhumerus -50.6801 12.3596 -92.1956
rradius 61.9371
rwrist -22.4391
rhand -22.3751 -40.2064
rfingers 7.12502
rthumb 4.04656 -70.1477
lclavicle 2.04997e-015 3.97569e-015
lhumerus -34.5265 -14.0892 95.4032
lradius 57.591
lwrist -17.2667
lhand -12.4566 -13.6737
lfingers 7.12502
lthumb 13.6169 15.861
rfemur -2.57425 2.26504 21.8453
rtibia 24.624
rfoot -10.7134 -6.38502
rtoes 22.5671
lfemur 1.94942 8.50948 -11.8335
ltibia 51.3752
lfoot -10.3958 -5.14895
ltoes -12.0785
256
root 47.9262 16.8694 -1.3162 372.451 87.8515 381.456
lowerback 13.3556 0.38938 -3.20099
upperback 2.89194 0.211748 0.437794
thorax -4.44925 0.191472 2.22843
lowerneck -27.2157 2.64045 1.91492
upperneck 16.7022 3.2301 -1.55424
head 9.78601 1.42641 -0.346435
rclavicle -2.86374e-015 1.83876e-015
rhumerus -49.9859 12.2248 -92.2286
rradius 62.6159
rwrist -22.1576
rhand -21.8282 -39.4591
rfingers 7.12502
rthumb 4.57463 -69.3897
lclavicle -2.86374e-015 1.83876e-015
lhumerus -35.0258 -13.4541 95.0153
lradius 55.421
lwrist -18.6685
lhand -9.52105 -13.0757
lfingers 7.12502
lthumb 16.4448 16.2473
rfemur -2.12199 2.25146 20.7866
rtibia 23.8015
rfoot -10.4919 -6.06802
rtoes 21.9181
lfemur 1.49691 8.51263 -12.8977
ltibia 51.4047
lfoot -10.7969 -4.38404
ltoes -11.3845
257
root 48.0012 16.9126 -1.34105 389.227 87.5893 398.017
lowerback 13.0466 0.385004 -3.55688
upperback 2.70039 0.143603 0.185848
thorax -4.47698 0.160116 2.17655
lowerneck -27.2032 2.58269 1.9394
upperneck 17.1964 3.14651 -1.53202
head 9.96031 1.38991 -0.353823
rclavicle 3.44767e-015 1.93815e-015
rhumerus -49.2409 12.2671 -92.2154
rradius 63.3854
rwrist -21.6943
rhand -21.0182 -38.846
rfingers 7.12502
rthumb 5.35679 -68.7583
lclavicle 3.44767e-015 1.93815e-015
lhumerus -35.4853 -12.7705 94.6005
lradius 53.2542
lwrist -20.3115
lhand -7.02995 -12.8778
lfingers 7.12502
lthumb 18.842 16.2296
rfemur -1.48341 1.6068 19.5959
rtibia 22.7912
rfoot -10.2572 -5.25593
rtoes 22.9802
lfemur 1.29767 8.3804 -14.0839
ltibia 50.9196
lfoot -11.1639 -3.5263
ltoes -10.9949
258
root 48.0312 16.9616 -1.35696 359.973 87.7984 368.438
lowerback 12.8493 0.298383 -2.0841
upperback 2.64854 0.241784 0.460099
thorax -4.4277 0.18983 1.61547
lowerneck -27.2891 2.61989 2.10123
upperneck 17.4697 3.1783 -1.69712
head 10.0803 1.39302 -0.431715
rclavicle -1.57475e-015 -2.13694e-015
rhumerus -48.0421 12.4032 -92.0864
rradius 64.1119
rwrist -21.3232
rhand -20.7251 -37.3755
rfingers 7.12502
rthumb 5.6398 -67.2805
lclavicle -1.57475e-015 -2.13694e-015
lhumerus -35.486 -12.4654 94.0952
lradius 51.1203
lwrist -21.8665
lhand -5.11815 -13.2831
lfingers 7.12502
lthumb 20.6799 15.6351
rfemur -1.3863 1.73024 21.0054
rtibia 22.3227
rfoot -10.2197 -5.11865
rtoes 24.1
lfemur 0.636169 8.51921 -12.7179
ltibia 50.83
lfoot -11.4287 -2.92474
ltoes -10.8876
259
root 48.0901 17.0032 -1.38773 365.131 87.7113 373.449
lowerback 12.6256 0.32179 -1.79734
upperback 2.56764 0.302238 0.304439
thorax -4.39063 0.213846 1.28096
lowerneck -27.2561 2.63896 2.25438
upperneck 17.8072 3.20951 -1.92537
head 10.2051 1.388 -0.532113
rclavicle 2.91965e-015 4.02539e-015
rhumerus -47.2574 12.3703 -91.9835
rradius 65.1067
rwrist -21.1298
rhand -19.4647 -37.7646
rfingers 7.12502
rthumb 6.85661 -67.6336
lclavicle 2.91965e-015 4.02539e-015
lhumerus -35.7588 -12.5574 93.7088
lradius 49.0835
lwrist -23.3488
lhand -3.5729 -14.0314
lfingers 7.12502
lthumb 22.164 14.7181
rfemur -0.961512 1.11289 20.4673
rtibia 21.6201
rfoot -9.74209 -4.50716
rtoes 22.8131
lfemur 0.47625 8.43165 -13.2548
ltibia 50.2394
lfoot -11.7911 -2.21528
ltoes -11.3417
260
root 48.1463 17.0499 -1.39684 396.773 86.8234 405.007
lowerback 12.6751 0.615218 -3.36743
upperback 2.31112 0.446658 -0.181191
thorax -4.69824 0.307222 1.63435
lowerneck -27.0087 2.56783 2.25255
upperneck 18.1456 3.16415 -2.06963
head 10.288 1.34963 -0.592118
rclavicle 2.62613e-015 -8.39865e-015
rhumerus -46.8642 12.1936 -91.899
rradius 66.2651
rwrist -20.9454
rhand -18.6476 -37.6528
rfingers 7.12502
rthumb 7.64525 -67.4946
lclavicle 2.62613e-015 -8.39865e-015
lhumerus -36.4201 -12.9 93.5131
lradius 47.2141
lwrist -24.6859
lhand -1.81151 -14.7359
lfingers 7.12502
lthumb 23.8542 13.8029
rfemur -0.523742 1.18439 18.2933
rtibia 20.8673
rfoot -9.46996 -4.3121
rtoes 23.1464
lfemur 0.338929 8.41462 -15.4563
ltibia 49.5331
lfoot -12.3722 -1.20979
ltoes -12.3893
261
root 48.1675 17.0911 -1.39355 366.773 86.8564 375.12
lowerback 13.0897 0.795256 -1.8854
upperback 2.28919 0.896163 0.250951
thorax -4.95988 0.511578 1.17131
lowerneck -26.7666 2.47065 2.04977
upperneck 18.0832 3.08419 -1.95033
head 10.2163 1.316 -0.531678
rclavicle 1.52816e-015 -2.08724e-015
rhumerus -46.0286 12.2102 -91.7208
rradius 67.2639
rwrist -20.8796
rhand -18.4522 -36.509
rfingers 7.12502
rthumb 7.8339 -66.3438
lclavicle 1.52816e-015 -2.08724e-015
lhumerus -36.6913 -13.4758 93.3689
lradius 45.4204
lwrist -25.5753
lhand -0.506344 -15.3121
lfingers 7.12502
lthumb 25.1053 13.0575
rfemur -0.0641037 2.4406 20.4624
rtibia 20.2434
rfoot -9.31349 -5.07405
rtoes 23.2468
lfemur 0.272825 9.0134 -13.2777
ltibia 49.1838
lfoot -12.9075 -0.464411
ltoes -12.7127
262
root 48.2295 17.1307 -1.43206 377.91 86.5609 386.117
lowerback 12.5737 0.869996 -2.09996
upperback 2.39071 0.965517 -0.0109118
thorax -4.57027 0.543706 1.01341
lowerneck -27.4423 2.33453 2.29979
upperneck 18.7762 2.90063 -2.34167
head 10.5936 1.1914 -0.738195
rclavicle -3.77691e-015 -1.19271e-015
rhumerus -45.0515 12.495 -91.6019
rradius 68.1315
rwrist -21.0753
rhand -18.4014 -35.3105
rfingers 7.12502
rthumb 7.88293 -65.1435
lclavicle -3.77691e-015 -1.19271e-015
lhumerus -36.868 -14.1921 93.2607
lradius 43.6581
lwrist -25.8719
lhand 0.0130803 -15.8959
lfingers 7.12502
lthumb 25.6029 12.4031
rfemur 0.49596 1.58895 19.1853
rtibia 19.3554
rfoot -8.54563 -4.24396
rtoes 23.6796
lfemur 0.291493 8.98352 -14.4923
ltibia 48.149
lfoot -13.5235 0.405416
ltoes -12.0582
263
root 48.2636 17.1676 -1.42975 370.257 86.3069 378.537
lowerback 12.7722 1.02309 -1.79449
upperback 2.37134 1.21116 0.122724
thorax -4.70517 0.662402 0.937191
lowerneck -27.003 2.42078 2.05337
upperneck 18.5209 3.01744 -1.93767
head 10.415 1.28369 -0.535836
rclavicle 8.88319e-016 -9.93923e-016
rhumerus -44.3075 12.7509 -91.5276
rradius 69.0933
rwrist -21.3175
rhand -18.0553 -34.7888
rfingers 7.12502
rthumb 8.21701 -64.609
lclavicle 8.88319e-016 -9.93923e-016
lhumerus -37.3327 -15.0529 93.2518
lradius 42.0073
lwrist -25.8467
lhand 0.371388 -16.6182
lfingers 7.12502
lthumb 25.9461 11.6309
rfemur 1.03888 2.27399 19.802
rtibia 18.6229
rfoot -7.86914 -5.01375
rtoes 23.5687
lfemur 0.356219 9.28097 -13.8441
ltibia 47.3397
lfoot -14.1964 0.959323
ltoes -10.1816
264
root 48.3341 17.1998 -1.44982 374.188 86.0301 382.509
lowerback 12.5803 1.14727 -1.92217
upperback 2.30104 1.35375 0.0301349
thorax -4.6783 0.732844 0.891239
lowerneck -26.9578 2.35726 2.08336
upperneck 18.8225 2.94207 -1.99239
head 10.5177 1.244 -0.572612
rclavicle -5.79271e-015 -6.95746e-016
rhumerus -43.8974 12.9266 -91.4262
rradius 70.1962
rwrist -21.5322
rhand -17.7682 -34.637
rfingers 7.12502
rthumb 8.49399 -64.4462
lclavicle -5.79271e-015 -6.95746e-016
lhumerus -38.1494 -16.0981 93.4747
lradius 40.5453
lwrist -25.505
lhand 0.434271 -17.2222
lfingers 7.12502
lthumb 26.0063 11.0181
rfemur 1.82811 1.98605 19.1891
rtibia 17.684
rfoot -7.15731 -4.72783
rtoes 23.248
lfemur 0.750864 9.37842 -14.3661
ltibia 45.9748
lfoot -14.6267 1.49239
ltoes -8.92629
265
root 48.3563 17.2339 -1.45704 367.184 85.6795 375.505
lowerback 12.9819 1.32737 -1.42292
upperback 2.10437 1.6504 0.111388
thorax -5.10453 0.872944 0.633831
lowerneck -26.7613 2.28943 2.16309
upperneck 18.9263 2.84752 -2.07795
head 10.5224 1.19738 -0.633275
rclavicle 5.55044e-015 -6.95746e-016
rhumerus -43.4436 13.0801 -91.3842
rradius 71.1842
rwrist -21.6991
rhand -17.4875 -34.6289
rfingers 7.12502
rthumb 8.76488 -64.4269
lclavicle 5.55044e-015 -6.95746e-016
lhumerus -38.9988 -17.372 93.7579
lradius 39.2049
lwrist -24.6971
lhand -0.11626 -17.453
lfingers 7.12502
lthumb 25.479 10.8637
rfemur 2.03404 2.71772 19.8409
rtibia 17.3383
rfoot -6.90488 -5.07671
rtoes 23.6658
lfemur 0.645846 9.74003 -13.7389
ltibia 45.149
lfoot -14.9412 1.93498
ltoes -8.5139
266
root 48.3758 17.2714 -1.46808 355.698 85.297 363.824
lowerback 13.1447 1.412 -0.511529
upperback 1.93575 1.89811 0.375216
thorax -5.358 0.979058 0.347073
lowerneck -26.4956 2.32814 2.11309
upperneck 18.8643 2.9094 -2.01448
head 10.4529 1.23278 -0.593809
rclavicle -1.95057e-014 2.98177e-015
rhumerus -42.8378 13.4995 -91.2677
rradius 72.0688
rwrist -21.7716
rhand -17.2312 -34.2641
rfingers 7.12502
rthumb 9.01224 -64.0516
lclavicle -1.95057e-014 2.98177e-015
lhumerus -39.7479 -18.5122 94.1148
lradius 37.9212
lwrist -23.5898
lhand -1.29547 -17.3701
lfingers 7.12502
lthumb 24.349 11.1032
rfemur 2.01726 3.2709 21.0001
rtibia 17.0324
rfoot -6.65682 -5.32103
rtoes 23.8006
lfemur 0.375853 10.0811 -12.5939
ltibia 44.2998
lfoot -15.4954 2.2779
ltoes -7.54212
267
root 48.4296 17.2983 -1.49557 371.903 85.1075 379.939
lowerback 12.7842 1.54469 -1.61795
upperback 1.94303 1.89961 -0.0301162
thorax -5.17244 0.996395 0.555033
lowerneck -26.8417 2.22505 2.19756
upperneck 19.3561 2.81881 -2.31654
head 10.6991 1.15443 -0.729396
rclavicle -2.31087e-015 -3.57812e-015
rhumerus -42.1686 13.8272 -91.1131
rradius 72.9592
rwrist -21.777
rhand -17.3819 -33.1804
rfingers 7.12502
rthumb 8.86682 -62.9741
lclavicle -2.31087e-015 -3.57812e-015
lhumerus -40.4664 -19.7204 94.5005
lradius 36.8006
lwrist -22.09
lhand -2.53989 -17.1287
lfingers 7.12502
lthumb 23.1555 11.4996
rfemur 2.46216 2.75254 19.0306
rtibia 16.2451
rfoot -6.1407 -4.79569
rtoes 23.3784
lfemur 0.507815 9.9949 -14.5285
ltibia 42.8016
lfoot -16.322 2.7497
ltoes -7.922
268
root 48.4742 17.3279 -1.5214 378.731 84.7673 386.54
lowerback 12.3719 1.63389 -2.03933
upperback 1.93709 1.95589 -0.267966
thorax -4.95762 1.02833 0.545109
lowerneck -26.8117 2.20813 2.12574
upperneck 19.2015 2.77541 -2.1481
head 10.6315 1.15161 -0.664062
rclavicle -1.04238e-014 -7.25564e-015
rhumerus -41.4022 14.215 -90.9905
rradius 73.7632
rwrist -21.8219
rhand -17.5293 -32.5283
rfingers 7.12502
rthumb 8.7246 -62.328
lclavicle -1.04238e-014 -7.25564e-015
lhumerus -41.1582 -20.712 94.8001
lradius 35.8265
lwrist -20.2699
lhand -3.62796 -17.098
lfingers 7.12502
lthumb 22.1112 11.6577
rfemur 2.70441 2.4952 18.0007
rtibia 15.5568
rfoot -5.70279 -4.38633
rtoes 23.2004
lfemur 0.497486 10.0596 -15.5772
ltibia 41.321
lfoot -17.0651 3.0696
ltoes -9.156
269
root 48.5155 17.3477 -1.54736 380.543 84.3669 388.17
lowerback 12.0505 1.72369 -2.13107
upperback 1.93097 2.06247 -0.414618
thorax -4.78692 1.08003 0.435365
lowerneck -26.7781 2.30403 2.47569
upperneck 19.225 2.85382 -2.46318
head 10.6473 1.1734 -0.82229
rclavicle 2.81498e-014 1.78906e-015
rhumerus -40.5904 14.7051 -90.9142
rradius 74.405
rwrist -21.9274
rhand -17.5867 -32.3429
rfingers 7.12502
rthumb 8.66919 -62.1449
lclavicle 2.81498e-014 1.78906e-015
lhumerus -41.9138 -21.4585 95.0112
lradius 34.9998
lwrist -18.4018
lhand -4.7137 -17.3234
lfingers 7.12502
lthumb 21.0685 11.552
rfemur 2.92247 2.2718 17.4126
rtibia 14.9965
rfoot -5.33463 -3.82599
rtoes 23.1389
lfemur 0.602113 10.2046 -16.1392
ltibia 39.844
lfoot -17.7964 3.17286
ltoes -9.02709
